<svg id="Layer_2" enable-background="new 0 0 64 64" height="512" viewBox="0 0 64 64" width="512" xmlns="http://www.w3.org/2000/svg"><path d="m60.779 51.334c0 1.1-.898 2-2 2h-47.558c-1.1 0-2-.9-2-2v-38.668c0-1.1.9-2 2-2h47.559c1.102 0 2 .9 2 2v38.668z" fill="#52b8d9"/><path d="m58.779 53.834h-47.558c-1.379 0-2.5-1.122-2.5-2.5v-38.668c0-1.378 1.121-2.5 2.5-2.5h47.559c1.379 0 2.5 1.122 2.5 2.5v38.668c-.001 1.378-1.122 2.5-2.501 2.5zm-47.558-42.668c-.827 0-1.5.673-1.5 1.5v38.668c0 .827.673 1.5 1.5 1.5h47.559c.827 0 1.5-.673 1.5-1.5v-38.668c0-.827-.673-1.5-1.5-1.5z" fill="#63312d"/><path d="m54.779 51.334c0 1.1-.898 2-2 2h-47.558c-1.1 0-2-.9-2-2v-38.668c0-1.1.9-2 2-2h47.559c1.102 0 2 .9 2 2v38.668z" fill="#82d9ff"/><path d="m5.221 51.334v-38.668c0-1.1.9-2 2-2h-2c-1.1 0-2 .9-2 2v38.668c0 1.1.9 2 2 2h2c-1.1 0-2-.9-2-2z" fill="#caf4ff"/><path d="m60.779 12.666c0-1.1-.898-2-2-2h-47.558c-1.1 0-2 .9-2 2v3.668h51.559v-3.668z" fill="#d1d1d1"/><path d="m60.779 16.834h-51.558c-.276 0-.5-.224-.5-.5v-3.668c0-1.378 1.121-2.5 2.5-2.5h47.559c1.379 0 2.5 1.122 2.5 2.5v3.668c-.001.276-.224.5-.501.5zm-51.058-1h50.559v-3.168c0-.827-.673-1.5-1.5-1.5h-47.559c-.827 0-1.5.673-1.5 1.5z" fill="#63312d"/><path d="m54.779 12.666c0-1.1-.898-2-2-2h-47.558c-1.1 0-2 .9-2 2v3.668h51.559v-3.668z" fill="#f8f3f3"/><path d="m54.779 16.834h-51.558c-.276 0-.5-.224-.5-.5v-3.668c0-1.378 1.121-2.5 2.5-2.5h47.559c1.379 0 2.5 1.122 2.5 2.5v3.668c-.001.276-.224.5-.501.5zm-51.058-1h50.559v-3.168c0-.827-.673-1.5-1.5-1.5h-47.559c-.827 0-1.5.673-1.5 1.5z" fill="#63312d"/><path d="m52.779 53.834h-47.558c-1.379 0-2.5-1.122-2.5-2.5v-38.668c0-1.378 1.121-2.5 2.5-2.5h47.559c1.379 0 2.5 1.122 2.5 2.5v38.668c-.001 1.378-1.122 2.5-2.501 2.5zm-47.558-42.668c-.827 0-1.5.673-1.5 1.5v38.668c0 .827.673 1.5 1.5 1.5h47.559c.827 0 1.5-.673 1.5-1.5v-38.668c0-.827-.673-1.5-1.5-1.5z" fill="#63312d"/><path d="m9.129 13.5c0 .631-.512 1.143-1.143 1.143-.633 0-1.144-.512-1.144-1.143s.512-1.143 1.144-1.143c.631 0 1.143.512 1.143 1.143z" fill="#f9dd9d"/><path d="m13.363 13.5c0 .631-.512 1.143-1.145 1.143-.631 0-1.143-.512-1.143-1.143s.512-1.143 1.143-1.143c.634 0 1.145.512 1.145 1.143z" fill="#f9dd9d"/><circle cx="16.453" cy="13.5" fill="#f9dd9d" r="1.143"/><path d="m7.986 15.143c-.907 0-1.645-.737-1.645-1.643s.737-1.643 1.645-1.643c.905 0 1.643.737 1.643 1.643s-.737 1.643-1.643 1.643zm0-2.286c-.355 0-.645.288-.645.643s.289.643.645.643c.354 0 .643-.288.643-.643s-.288-.643-.643-.643z" fill="#63312d"/><path d="m12.219 15.143c-.905 0-1.643-.737-1.643-1.643s.737-1.643 1.643-1.643c.907 0 1.645.737 1.645 1.643s-.738 1.643-1.645 1.643zm0-2.286c-.354 0-.643.288-.643.643s.288.643.643.643.645-.288.645-.643-.29-.643-.645-.643z" fill="#63312d"/><path d="m16.453 15.143c-.905 0-1.643-.737-1.643-1.643s.737-1.643 1.643-1.643 1.643.737 1.643 1.643-.738 1.643-1.643 1.643zm0-2.286c-.354 0-.643.288-.643.643s.288.643.643.643.643-.288.643-.643-.288-.643-.643-.643z" fill="#63312d"/><path d="m33.324 43.5c-.396 0-.779-.158-1.061-.439l-10.033-10.034-10.07 10.07-2.121-2.121 11.131-11.13c.586-.586 1.535-.586 2.121 0l10.033 10.033 9.92-9.921 2.121 2.121-10.98 10.981c-.282.282-.662.44-1.061.44z" fill="#f9a287"/><path d="m33.324 44c-.526 0-1.042-.213-1.414-.586l-9.68-9.68-9.717 9.716c-.195.195-.512.195-.707 0l-2.121-2.121c-.094-.094-.146-.221-.146-.354s.053-.26.146-.354l11.131-11.13c.756-.756 2.072-.756 2.828 0l9.68 9.68 9.566-9.567c.188-.188.52-.188.707 0l2.121 2.121c.195.195.195.512 0 .707l-10.98 10.981c-.378.379-.88.587-1.414.587zm-11.094-11.473c.128 0 .256.049.354.146l10.033 10.033c.376.375 1.038.376 1.414 0l10.627-10.628-1.414-1.414-9.566 9.567c-.188.188-.52.188-.707 0l-10.033-10.032c-.391-.39-1.023-.39-1.414 0l-10.778 10.777 1.414 1.414 9.717-9.716c.098-.098.226-.147.353-.147z" fill="#63312d"/><path d="m8.037 45.201c-1.678-1.678-1.678-4.4 0-6.078 1.68-1.68 4.4-1.678 6.078 0 1.68 1.678 1.68 4.4 0 6.078-1.678 1.68-4.398 1.678-6.078 0z" fill="#f9dd9d"/><path d="m10.037 45.201c-1.678-1.678-1.678-4.4 0-6.078.582-.582 1.293-.949 2.039-1.127-1.404-.336-2.943.03-4.039 1.127-1.678 1.678-1.678 4.4 0 6.078 1.098 1.096 2.635 1.463 4.041 1.127-.748-.178-1.459-.545-2.041-1.127z" fill="#ffeecf"/><path d="m30.26 45.201c-1.68-1.678-1.68-4.4 0-6.078 1.678-1.68 4.398-1.678 6.078 0 1.678 1.678 1.678 4.4 0 6.078-1.68 1.68-4.401 1.678-6.078 0z" fill="#f9dd9d"/><path d="m41.225 34.104c-1.678-1.678-1.678-4.4 0-6.078 1.68-1.68 4.4-1.678 6.078 0 1.68 1.678 1.68 4.4 0 6.078-1.678 1.68-4.399 1.678-6.078 0z" fill="#f9dd9d"/><path d="m19.162 34.104c-1.678-1.678-1.678-4.4 0-6.078 1.68-1.68 4.4-1.678 6.078 0 1.68 1.678 1.68 4.4 0 6.078-1.678 1.68-4.398 1.678-6.078 0z" fill="#f9dd9d"/><path d="m21.162 34.104c-1.678-1.678-1.678-4.4 0-6.078.582-.582 1.293-.949 2.039-1.127-1.404-.336-2.943.03-4.039 1.127-1.678 1.678-1.678 4.4 0 6.078 1.098 1.096 2.635 1.463 4.041 1.127-.748-.177-1.459-.544-2.041-1.127z" fill="#ffeecf"/><path d="m32.26 45.201c-1.68-1.678-1.68-4.4 0-6.078.582-.582 1.291-.949 2.037-1.127-1.404-.336-2.941.03-4.037 1.127-1.68 1.678-1.68 4.4 0 6.078 1.096 1.096 2.635 1.463 4.039 1.127-.746-.178-1.457-.545-2.039-1.127z" fill="#ffeecf"/><path d="m43.225 34.104c-1.678-1.678-1.678-4.4 0-6.078.582-.582 1.293-.949 2.039-1.127-1.404-.336-2.943.03-4.039 1.127-1.678 1.678-1.678 4.4 0 6.078 1.098 1.096 2.635 1.463 4.041 1.127-.748-.177-1.459-.544-2.041-1.127z" fill="#ffeecf"/><g fill="#63312d"><path d="m11.078 46.96c-.001 0-.001 0 0 0-1.282 0-2.487-.5-3.395-1.406-1.871-1.871-1.871-4.915 0-6.785 1.871-1.871 4.914-1.871 6.785 0 .907.906 1.406 2.11 1.406 3.393s-.499 2.487-1.406 3.393c-.905.906-2.109 1.405-3.39 1.405zm-2.687-2.113c.718.718 1.672 1.113 2.687 1.113h.001c1.014 0 1.967-.395 2.684-1.113.718-.717 1.113-1.671 1.113-2.686s-.396-1.968-1.113-2.685c-1.48-1.481-3.891-1.481-5.371 0-1.482 1.482-1.482 3.891-.001 5.371z"/><path d="m33.299 46.958c-1.229 0-2.457-.467-3.393-1.403-.907-.906-1.406-2.111-1.406-3.393s.499-2.487 1.406-3.393c.905-.906 2.109-1.406 3.391-1.406h.001c1.281 0 2.486.5 3.394 1.406 1.871 1.871 1.871 4.915 0 6.785-.936.936-2.165 1.404-3.393 1.404zm-.002-8.594c-1.014 0-1.967.395-2.684 1.113-.718.717-1.113 1.671-1.113 2.686s.396 1.968 1.113 2.685c1.48 1.48 3.891 1.48 5.371 0 1.48-1.481 1.48-3.89 0-5.371-.717-.718-1.671-1.113-2.687-1.113.001 0 .001 0 0 0z"/><path d="m44.266 35.864c-.001 0-.001 0 0 0-1.282 0-2.487-.5-3.395-1.406-1.871-1.871-1.871-4.915 0-6.785 1.871-1.871 4.914-1.871 6.785 0 .907.906 1.406 2.11 1.406 3.393s-.499 2.487-1.406 3.393c-.905.905-2.109 1.405-3.39 1.405zm-2.688-2.114c.718.718 1.672 1.113 2.687 1.113h.001c1.014 0 1.967-.395 2.684-1.113.718-.717 1.113-1.671 1.113-2.686s-.396-1.968-1.113-2.685c-1.48-1.481-3.891-1.481-5.371 0-1.481 1.482-1.481 3.891-.001 5.371z"/><path d="m22.203 35.864c-.001 0-.001 0 0 0-1.282 0-2.487-.5-3.395-1.406-1.871-1.871-1.871-4.915 0-6.785 1.871-1.871 4.914-1.871 6.785 0 .908.906 1.407 2.11 1.407 3.392s-.499 2.487-1.406 3.393c-.906.906-2.11 1.406-3.391 1.406zm-2.687-2.114c.718.718 1.672 1.113 2.687 1.113h.001c1.014 0 1.967-.395 2.684-1.113.716-.716 1.112-1.67 1.112-2.685s-.396-1.968-1.113-2.685c-1.48-1.481-3.891-1.481-5.371 0-1.481 1.481-1.481 3.89 0 5.37z"/></g><path d="m44.264 13.278c-3.717 0-6.73 3.014-6.73 6.732 0 2.072 1.092 3.691 2.275 5.306.994 1.356 4.455 6.077 4.455 6.077.504-.655 3.461-4.721 4.457-6.077 1.184-1.612 2.275-3.232 2.275-5.306 0-3.718-3.014-6.732-6.732-6.732z" fill="#f9a287"/><path d="m41.809 25.316c-1.184-1.615-2.275-3.233-2.275-5.306 0-3.378 2.49-6.166 5.73-6.65-.326-.049-.658-.082-1-.082-3.717 0-6.73 3.014-6.73 6.732 0 2.072 1.092 3.691 2.275 5.306.994 1.356 4.455 6.077 4.455 6.077.152-.197.529-.708 1.006-1.357-1.102-1.503-2.809-3.831-3.461-4.72z" fill="#ffc8bb"/><path d="m44.264 31.894c-.002 0-.004 0-.006 0-.157-.002-.305-.078-.397-.205l-4.455-6.077c-1.25-1.706-2.372-3.418-2.372-5.601 0-3.988 3.243-7.232 7.23-7.232 3.988 0 7.232 3.245 7.232 7.232 0 2.188-1.122 3.898-2.372 5.602l-1.403 1.918c-1.229 1.682-2.716 3.72-3.061 4.167-.095.123-.241.196-.396.196zm0-18.116c-3.436 0-6.23 2.796-6.23 6.232 0 1.884.986 3.383 2.179 5.01l4.056 5.532c.61-.825 1.705-2.323 2.646-3.612l1.404-1.92c1.192-1.624 2.179-3.121 2.179-5.01-.002-3.436-2.798-6.232-6.234-6.232z" fill="#63312d"/><path d="m47.137 19.952c0 1.586-1.287 2.871-2.873 2.871-1.584 0-2.871-1.285-2.871-2.871 0-1.587 1.287-2.872 2.871-2.872 1.586 0 2.873 1.285 2.873 2.872z" fill="#f8f3f3"/><path d="m44.264 23.323c-1.858 0-3.371-1.512-3.371-3.371s1.513-3.372 3.371-3.372c1.86 0 3.373 1.513 3.373 3.372s-1.513 3.371-3.373 3.371zm0-5.743c-1.308 0-2.371 1.064-2.371 2.372s1.063 2.371 2.371 2.371c1.309 0 2.373-1.063 2.373-2.371s-1.065-2.372-2.373-2.372z" fill="#63312d"/></svg>